PathFileType	4	(X/Y/Z)	C:/Users/opensim2020/Desktop/walking_exp_matlab/subject02_walking07_straight_03.trc	
DataRate	CameraRate	NumFrames	NumMarkers	Units	OrigDataRate	OrigDataStartFrame	OrigNumFrames	
100.00	100.00	5	50	mm	100.00	2119	203	
Frame#	Time	LFHD			RFHD			LBHD			RBHD			C7			T10			CLAV			STRN			RBAK			LSHO			LUPA			LELB			LFRM			LWRA			LWRB			LFIN			RSHO			RUPA			RELB			RFRM			RWRA			RWRB			RFIN			LASI			RASI			LPSI			RPSI			LTHI			LKNE			LTIB			LANK			LHEE			LTOE			RTHI			RKNE			RTIB			RANK			RHEE			RTOE			*39			*40			*41			*42			*43			*44			*45			*46			*47			*48			*49			
		X1	Y1	Z1	X2	Y2	Z2	X3	Y3	Z3	X4	Y4	Z4	X5	Y5	Z5	X6	Y6	Z6	X7	Y7	Z7	X8	Y8	Z8	X9	Y9	Z9	X10	Y10	Z10	X11	Y11	Z11	X12	Y12	Z12	X13	Y13	Z13	X14	Y14	Z14	X15	Y15	Z15	X16	Y16	Z16	X17	Y17	Z17	X18	Y18	Z18	X19	Y19	Z19	X20	Y20	Z20	X21	Y21	Z21	X22	Y22	Z22	X23	Y23	Z23	X24	Y24	Z24	X25	Y25	Z25	X26	Y26	Z26	X27	Y27	Z27	X28	Y28	Z28	X29	Y29	Z29	X30	Y30	Z30	X31	Y31	Z31	X32	Y32	Z32	X33	Y33	Z33	X34	Y34	Z34	X35	Y35	Z35	X36	Y36	Z36	X37	Y37	Z37	X38	Y38	Z38	X39	Y39	Z39	X40	Y40	Z40	X41	Y41	Z41	X42	Y42	Z42	X43	Y43	Z43	X44	Y44	Z44	X45	Y45	Z45	X46	Y46	Z46	X47	Y47	Z47	X48	Y48	Z48	X49	Y49	Z49	X50	Y50	Z50	

127	1.260	1405.82825	272.24689	1769.58020	1547.77515	289.20517	1749.63025	1403.40320	172.07788	1657.09143	1544.20349	177.40228	1631.71362	1470.20105	149.97513	1530.08948	1480.98083	100.49522	1257.73413	1451.23059	290.20682	1466.48950	1467.86707	344.62115	1294.29504	1544.35754	98.98367	1362.90662	1286.07581	210.14481	1501.11133	1211.67834	155.75954	1307.16443	1207.35608	124.65829	1169.71155	1194.42798	101.93362	1039.77026	1223.35571	126.59116	903.10577	1191.30261	81.94288	917.81738	1192.36328	80.56042	849.48004	1649.91565	243.57468	1508.02954	1746.71484	262.07986	1321.89258	1770.81641	318.53989	1185.70093	1786.37634	388.99200	1087.74023	1760.55652	476.50687	986.46796	1800.59180	439.64948	968.39673	1797.59607	497.67346	924.16461	1357.38489	335.66483	999.43988	1611.46875	318.75833	978.85797	1421.83240	121.19952	1041.80420	1536.59509	110.57746	1040.87305	1272.76111	332.63989	699.78192	1297.02319	356.76389	500.97870	1301.37866	313.07687	312.20236	1320.72595	337.75864	88.92982	1379.67578	318.87842	59.12570	1275.05432	483.06229	59.21564	1646.64624	221.13954	670.36340	1593.07275	204.45576	462.57809	1585.42273	148.88365	282.24649	1534.00293	121.62852	92.85487	1474.00952	89.59028	39.91846	1561.91125	269.78110	37.90883	1505.09631	161.94612	1796.93701	-3360.34741	2845.29980	1034.09741																											 
128	1.270	1405.81091	281.19608	1768.70105	1547.62329	298.17041	1748.95020	1403.38025	180.64011	1656.04724	1544.48975	186.23305	1631.18298	1470.50391	158.49243	1529.04492	1481.09888	108.58363	1257.15857	1451.56628	298.68781	1465.62170	1468.38928	352.93161	1293.37708	1544.96558	107.53120	1362.26855	1286.62500	218.03772	1500.15002	1212.44324	161.00504	1307.30090	1208.61255	128.88469	1169.87866	1195.73499	104.46172	1040.41455	1223.87573	127.66078	903.19196	1192.62866	82.37989	918.55530	1193.48511	80.39629	850.19116	1650.19177	252.38559	1507.48132	1747.34070	272.46924	1321.88904	1771.59436	330.85617	1186.37695	1786.48486	402.80884	1089.34192	1760.61194	492.32434	989.87988	1800.75623	455.64322	971.10681	1797.43115	514.55194	927.93536	1357.64026	344.24713	998.12976	1611.86047	326.15506	978.07397	1421.56189	129.23431	1040.97009	1536.28699	118.26031	1040.33948	1273.73730	340.93381	698.27582	1299.25891	366.21814	499.68869	1302.73267	330.61627	309.03723	1321.09839	365.94659	86.55080	1380.03796	348.01086	55.91944	1275.71277	512.61603	62.71761	1646.38379	225.71466	669.81549	1593.19666	207.60185	462.55298	1585.23694	150.33871	282.47205	1533.77991	121.92397	93.14175	1473.77954	89.78575	40.18847	1562.05835	269.75565	37.78569	1504.95203	171.00026	1796.23840	-3360.13965	2845.18628	1034.08167																											 
129	1.280	1405.44604	289.77295	1767.58459	1547.45374	307.07764	1748.15552	1403.53003	189.34097	1655.09509	1544.29236	194.88895	1630.38135	1471.21411	167.08191	1528.51563	1481.10535	116.76789	1256.40576	1451.78247	307.18893	1464.59399	1468.72913	361.24997	1292.30176	1545.43799	116.03406	1361.51111	1287.04773	225.96703	1499.10388	1213.34241	166.85513	1307.02295	1209.74365	133.35931	1169.90955	1196.45923	106.43047	1040.88293	1224.20874	129.28931	903.19495	1193.49341	83.92234	919.18866	1194.49976	80.92251	850.73676	1650.37659	261.17624	1506.85632	1747.82605	282.71265	1321.61829	1772.29883	342.94019	1186.83765	1787.07654	416.69568	1091.05200	1760.37354	507.55698	993.19513	1800.74146	471.38388	973.63281	1797.12341	530.85046	931.51239	1357.78064	352.70203	996.70605	1612.14722	333.65475	977.32452	1421.36975	137.88329	1039.70581	1535.94910	126.04721	1039.52075	1274.77344	348.89166	696.68903	1301.36121	375.65475	498.40125	1304.24060	347.95169	306.18597	1321.49731	393.23749	85.03955	1379.79285	376.82031	53.53666	1276.74890	541.30005	66.96214	1646.33813	230.62331	669.41473	1593.07690	210.75856	462.26312	1585.02014	152.00407	282.64249	1533.56897	122.27248	93.49266	1473.26160	89.93777	40.38718	1562.20740	269.76349	37.73883	1505.13464	180.02684	1795.65930	-3357.33569	2845.85010	1033.97046																											 
130	1.290	1405.37793	298.69647	1766.56946	1547.23938	316.00833	1747.24756	1403.83191	198.00607	1654.20789	1544.38843	203.68568	1629.60400	1471.59692	175.80518	1527.58997	1481.01819	124.93216	1255.60229	1451.88818	315.72543	1463.50085	1468.86255	369.48859	1291.09680	1545.90820	124.21880	1360.86023	1287.36963	234.06946	1497.95605	1214.56262	173.62177	1306.30408	1210.80994	138.31613	1169.74084	1197.98267	111.01833	1040.97168	1224.47290	131.31847	903.12769	1194.72766	85.61709	919.66095	1194.99475	81.88776	851.51135	1650.20215	269.88019	1505.96582	1748.30725	292.98935	1321.25110	1772.87598	354.81625	1187.08765	1787.00159	430.03427	1092.28125	1760.45239	522.55383	995.98822	1800.46741	486.76010	975.77850	1796.82996	546.97266	934.86908	1357.79590	361.26065	995.20685	1612.44324	341.31723	976.61420	1421.10510	146.51402	1038.35181	1535.51062	133.68962	1038.66150	1275.39880	356.57758	694.99902	1303.27417	384.93292	496.92517	1305.70776	364.84366	303.70215	1321.94580	419.47849	84.19110	1380.37561	403.99335	52.37109	1278.13696	568.71790	71.50050	1646.47363	235.86884	669.22083	1592.90149	214.24162	461.90436	1584.74194	153.89201	282.89105	1533.22754	122.70223	93.86371	1472.84302	90.19569	40.79483	1562.25720	269.66580	37.58056	1504.83997	188.97327	1794.94360	-3357.40088	2845.94141	1034.14856																											 
131	1.300	1405.00354	307.48477	1765.29614	1546.89355	324.94028	1746.23462	1403.78613	206.74736	1653.05298	1544.37817	212.53139	1628.63599	1472.08936	183.75951	1526.78491	1480.80981	133.16846	1254.66016	1451.94275	324.31964	1462.27295	1469.06201	377.90189	1289.85510	1545.95886	132.95479	1359.79565	1287.58618	242.27321	1496.76489	1214.73608	179.06738	1305.69312	1211.79724	143.57437	1169.56177	1198.81836	114.10342	1041.33911	1224.61804	134.17850	903.25507	1195.38550	88.11532	920.12250	1196.03320	83.52368	851.78632	1650.56738	279.01550	1505.02136	1748.54980	302.95932	1320.56274	1773.04114	366.25500	1186.85913	1787.04297	443.20313	1093.43347	1760.21973	537.22192	998.70709	1800.20728	501.80069	977.78076	1796.45569	562.85309	938.08679	1357.84595	369.89151	993.67560	1612.59314	348.82068	975.81415	1420.72180	154.99496	1036.92114	1534.96667	141.51212	1037.41528	1276.14478	363.87869	693.13776	1304.89197	393.65005	495.24722	1307.12854	381.35489	301.35318	1322.62720	444.72006	83.96177	1380.77185	430.02679	51.28577	1279.84375	594.90240	75.84070	1646.43835	241.12067	668.76581	1592.78284	218.00812	461.48779	1584.47571	155.88481	283.03400	1532.89221	123.15356	94.27415	1472.57153	90.57594	41.46611	1562.36853	269.67191	37.47637	1504.38538	197.73010	1793.82837	-3360.36914	2845.15063	1034.06116																											 
